#!OML:ASF G:\JayActor3\Patient Classification 1\Patient 1\Session 5\male.ASF
:FULLY-SPECIFIED
:DEGREES
1041
root 51.7448 17.3417 -6.44305 -1098.31 -92.4526 1117.7
lowerback 22.887 -1.52489 2.78345
upperback 5.64387 -1.82085 -1.08031
thorax -6.67481 -1.07729 -2.23685
lowerneck 5.90122 1.49786 3.11177
upperneck -18.4621 2.1663 0.0313444
head -6.54961 0.689033 -0.650939
rclavicle 7.95139e-016 -1.98785e-015
rhumerus -28.8856 -0.294107 -90.664
rradius 33.212
rwrist 0.515269
rhand -21.9453 -8.40728
rfingers 7.12502
rthumb 4.46161 -38.3403
lclavicle 7.95139e-016 -1.98785e-015
lhumerus -29.7718 -3.31902 85.0005
lradius 31.2002
lwrist 21.3562
lhand -20.4051 9.60225
lfingers 7.12502
lthumb 5.94869 39.4987
rfemur -52.0555 3.9783 21.4387
rtibia 70.3442
rfoot 8.69816 -6.26755
rtoes -9.09858
lfemur -38.5511 13.6197 -28.4316
ltibia 30.3829
lfoot 16.4181 -12.0948
ltoes -12.1459
1042
root 51.8254 17.3467 -6.43913 -1098.46 -92.4887 1117.87
lowerback 22.8074 -1.50733 2.74831
upperback 5.64093 -1.80753 -1.08521
thorax -6.6356 -1.06963 -2.22722
lowerneck 5.89506 1.49646 3.09881
upperneck -18.4544 2.16665 0.0554736
head -6.54654 0.688282 -0.641003
rclavicle -1.15295e-014 2.14687e-014
rhumerus -28.9364 -0.302531 -90.6154
rradius 33.2123
rwrist 0.574661
rhand -21.9472 -8.44308
rfingers 7.12502
rthumb 4.45977 -38.3761
lclavicle -1.15295e-014 2.14687e-014
lhumerus -29.7993 -3.30514 84.9774
lradius 31.1899
lwrist 21.386
lhand -20.4057 9.51668
lfingers 7.12502
lthumb 5.94814 39.4132
rfemur -51.2613 4.04223 21.5588
rtibia 70.7631
rfoot 9.10003 -6.20375
rtoes -8.81175
lfemur -38.6159 13.7842 -28.5187
ltibia 29.8753
lfoot 16.9209 -12.1264
ltoes -11.3025
1043
root 51.9054 17.3512 -6.4361 -1098.89 -92.5062 1118.31
lowerback 22.7219 -1.49378 2.71958
upperback 5.63659 -1.79743 -1.08707
thorax -6.59514 -1.06347 -2.21714
lowerneck 5.88933 1.49433 3.09529
upperneck -18.4451 2.16585 0.0716381
head -6.54286 0.687063 -0.635096
rclavicle 1.70955e-014 -3.97569e-015
rhumerus -28.9925 -0.330105 -90.5621
rradius 33.2142
rwrist 0.625528
rhand -21.9374 -8.48034
rfingers 7.12502
rthumb 4.46923 -38.4132
lclavicle 1.70955e-014 -3.97569e-015
lhumerus -29.8236 -3.29352 84.9559
lradius 31.166
lwrist 21.4026
lhand -20.4053 9.4079
lfingers 7.12502
lthumb 5.94857 39.3044
rfemur -50.434 4.08981 21.6933
rtibia 71.0692
rfoot 9.48688 -6.16115
rtoes -8.53059
lfemur -38.6858 13.9428 -28.5921
ltibia 29.4078
lfoot 17.4112 -12.1576
ltoes -10.3483
1044
root 51.985 17.3549 -6.4337 -1099.59 -92.5189 1119.02
lowerback 22.6431 -1.48227 2.70157
upperback 5.63133 -1.78697 -1.08499
thorax -6.5592 -1.05731 -2.20884
lowerneck 5.88357 1.49154 3.08995
upperneck -18.4406 2.16381 0.087687
head -6.54074 0.685219 -0.628858
rclavicle 1.74931e-014 -1.98785e-015
rhumerus -29.0515 -0.377387 -90.5036
rradius 33.2179
rwrist 0.663397
rhand -21.9247 -8.50134
rfingers 7.12502
rthumb 4.48149 -38.4339
lclavicle 1.74931e-014 -1.98785e-015
lhumerus -29.8503 -3.28037 84.9371
lradius 31.1421
lwrist 21.4042
lhand -20.4033 9.26887
lfingers 7.12502
lthumb 5.95043 39.1653
rfemur -49.5702 4.12487 21.8483
rtibia 71.2543
rfoot 9.89015 -6.11647
rtoes -8.26851
lfemur -38.7639 14.1024 -28.6462
ltibia 28.9907
lfoot 17.8843 -12.1874
ltoes -9.30876
1045
root 52.0643 17.3584 -6.43202 -1100.76 -92.5134 1120.19
lowerback 22.572 -1.47881 2.70179
upperback 5.62226 -1.78187 -1.07848
thorax -6.53203 -1.05393 -2.2045
lowerneck 5.87546 1.48726 3.09208
upperneck -18.4389 2.15869 0.093836
head -6.53891 0.682093 -0.626791
rclavicle -5.56597e-015 -4.13472e-014
rhumerus -29.112 -0.449646 -90.4405
rradius 33.2168
rwrist 0.686978
rhand -21.9152 -8.50992
rfingers 7.12502
rthumb 4.49061 -38.4423
lclavicle -5.56597e-015 -4.13472e-014
lhumerus -29.8835 -3.27353 84.9208
lradius 31.1262
lwrist 21.3944
lhand -20.3912 9.13619
lfingers 7.12502
lthumb 5.96209 39.0323
rfemur -48.6735 4.13144 22.0252
rtibia 71.3081
rfoot 10.3112 -6.05987
rtoes -7.96095
lfemur -38.8534 14.2308 -28.666
ltibia 28.6293
lfoot 18.3515 -12.1605
ltoes -8.03639
1046
root 52.1435 17.3612 -6.43071 -1102.34 -92.4981 1121.76
lowerback 22.5124 -1.48351 2.72102
upperback 5.60722 -1.78204 -1.06801
thorax -6.51791 -1.05336 -2.20502
lowerneck 5.88106 1.48554 3.09009
upperneck -18.4486 2.15748 0.101126
head -6.54313 0.680795 -0.624145
rclavicle -2.98177e-014 -2.90226e-014
rhumerus -29.177 -0.534623 -90.3753
rradius 33.2109
rwrist 0.693135
rhand -21.9117 -8.50626
rfingers 7.12502
rthumb 4.49402 -38.4386
lclavicle -2.98177e-014 -2.90226e-014
lhumerus -29.9269 -3.26552 84.9075
lradius 31.1246
lwrist 21.3759
lhand -20.3706 9.03009
lfingers 7.12502
lthumb 5.98204 38.9256
rfemur -47.7479 4.11171 22.2218
rtibia 71.225
rfoot 10.7472 -5.94798
rtoes -7.70671
lfemur -38.9588 14.3416 -28.6635
ltibia 28.3171
lfoot 18.8022 -12.1082
ltoes -6.64751
1047
root 52.2231 17.3624 -6.42954 -1104.22 -92.4752 1123.65
lowerback 22.4581 -1.4928 2.76417
upperback 5.58396 -1.78218 -1.05954
thorax -6.51612 -1.05306 -2.22122
lowerneck 5.90157 1.48146 3.097
upperneck -18.4698 2.15426 0.104982
head -6.55357 0.677943 -0.62413
rclavicle 2.78299e-014 3.22031e-014
rhumerus -29.2489 -0.638746 -90.3109
rradius 33.2029
rwrist 0.684363
rhand -21.9131 -8.49404
rfingers 7.12502
rthumb 4.49264 -38.4264
lclavicle 2.78299e-014 3.22031e-014
lhumerus -29.9839 -3.27888 84.8961
lradius 31.1442
lwrist 21.3632
lhand -20.3463 8.95131
lfingers 7.12502
lthumb 6.00553 38.8462
rfemur -46.8113 4.06998 22.4282
rtibia 71.003
rfoot 11.1668 -5.77743
rtoes -7.46704
lfemur -39.0952 14.4418 -28.6573
ltibia 28.043
lfoot 19.2338 -12.0537
ltoes -5.24697
1048
root 52.3035 17.3613 -6.42829 -1106.26 -92.4563 1125.69
lowerback 22.4037 -1.50452 2.82109
upperback 5.55651 -1.78205 -1.05052
thorax -6.51912 -1.05277 -2.24474
lowerneck 5.93639 1.47822 3.10126
upperneck -18.5032 2.15238 0.107723
head -6.5704 0.675729 -0.624325
rclavicle -4.37326e-015 -1.70955e-014
rhumerus -29.3194 -0.739863 -90.2492
rradius 33.1926
rwrist 0.666986
rhand -21.9131 -8.47834
rfingers 7.12502
rthumb 4.49269 -38.4107
lclavicle -4.37326e-015 -1.70955e-014
lhumerus -30.0443 -3.29281 84.8883
lradius 31.1776
lwrist 21.3559
lhand -20.3256 8.91663
lfingers 7.12502
lthumb 6.02543 38.8109
rfemur -45.8713 4.02289 22.6371
rtibia 70.6413
rfoot 11.5328 -5.54197
rtoes -7.25432
lfemur -39.2606 14.5394 -28.6566
ltibia 27.7895
lfoot 19.6388 -12.0106
ltoes -3.91045
1049
root 52.3846 17.3574 -6.42684 -1108.25 -92.442 1127.7
lowerback 22.3451 -1.51411 2.88996
upperback 5.52429 -1.77666 -1.0464
thorax -6.52527 -1.05008 -2.28192
lowerneck 5.98622 1.47104 3.11077
upperneck -18.5411 2.14788 0.117818
head -6.59144 0.671232 -0.623015
rclavicle 1.19271e-015 1.35174e-014
rhumerus -29.3906 -0.844015 -90.1927
rradius 33.1789
rwrist 0.650414
rhand -21.9134 -8.4723
rfingers 7.12502
rthumb 4.49243 -38.4047
lclavicle 1.19271e-015 1.35174e-014
lhumerus -30.1081 -3.31442 84.8811
lradius 31.2181
lwrist 21.3541
lhand -20.3138 8.90192
lfingers 7.12502
lthumb 6.03686 38.7959
rfemur -44.9354 3.97848 22.8401
rtibia 70.1394
rfoot 11.848 -5.24597
rtoes -7.12201
lfemur -39.4575 14.6495 -28.6835
ltibia 27.5455
lfoot 20.0161 -12.0232
ltoes -2.78384
1050
root 52.4668 17.3506 -6.42512 -1109.99 -92.4352 1129.46
lowerback 22.281 -1.52081 2.95678
upperback 5.49331 -1.76847 -1.04405
thorax -6.52705 -1.04601 -2.32072
lowerneck 6.02223 1.46373 3.11729
upperneck -18.569 2.14303 0.132981
head -6.60698 0.666555 -0.619375
rclavicle -3.97569e-016 -1.31198e-014
rhumerus -29.4505 -0.923706 -90.1431
rradius 33.1668
rwrist 0.637114
rhand -21.9189 -8.48025
rfingers 7.12502
rthumb 4.48706 -38.4127
lclavicle -3.97569e-016 -1.31198e-014
lhumerus -30.159 -3.32922 84.8768
lradius 31.2539
lwrist 21.3604
lhand -20.3262 8.89077
lfingers 7.12502
lthumb 6.02488 38.7851
rfemur -44.011 3.94931 23.0292
rtibia 69.4992
rfoot 12.1025 -4.92196
rtoes -7.05362
lfemur -39.6792 14.7637 -28.7387
ltibia 27.3056
lfoot 20.3599 -12.074
ltoes -1.84086
1051
root 52.5498 17.3417 -6.42342 -1111.59 -92.4228 1131.09
lowerback 22.2104 -1.52636 3.0218
upperback 5.46299 -1.75977 -1.04597
thorax -6.52467 -1.04163 -2.36337
lowerneck 6.06114 1.4539 3.13197
upperneck -18.589 2.13671 0.151468
head -6.62048 0.660598 -0.615907
rclavicle 5.56597e-015 1.59028e-015
rhumerus -29.5019 -0.992927 -90.102
rradius 33.1494
rwrist 0.639847
rhand -21.9245 -8.49973
rfingers 7.12502
rthumb 4.48171 -38.4323
lclavicle 5.56597e-015 1.59028e-015
lhumerus -30.2014 -3.34481 84.8727
lradius 31.2802
lwrist 21.3714
lhand -20.3554 8.89795
lfingers 7.12502
lthumb 5.99671 38.7931
rfemur -43.0911 3.93068 23.2036
rtibia 68.7172
rfoot 12.3494 -4.61714
rtoes -6.94761
lfemur -39.912 14.867 -28.8173
ltibia 27.0703
lfoot 20.6683 -12.164
ltoes -1.09579
1052
root 52.6341 17.3307 -6.42132 -1112.61 -92.4323 1132.13
lowerback 22.139 -1.52168 3.07596
upperback 5.43822 -1.74112 -1.04959
thorax -6.51493 -1.03241 -2.40444
lowerneck 6.07156 1.44308 3.14226
upperneck -18.5848 2.12756 0.172526
head -6.62137 0.653929 -0.610292
rclavicle -1.47101e-014 -7.15625e-015
rhumerus -29.5307 -1.03535 -90.0677
rradius 33.1252
rwrist 0.660453
rhand -21.9354 -8.52353
rfingers 7.12502
rthumb 4.47117 -38.4563
lclavicle -1.47101e-014 -7.15625e-015
lhumerus -30.229 -3.34761 84.8717
lradius 31.3035
lwrist 21.3867
lhand -20.3979 8.91328
lfingers 7.12502
lthumb 5.95569 38.8096
rfemur -42.187 3.95128 23.362
rtibia 67.801
rfoot 12.6379 -4.37156
rtoes -6.7601
lfemur -40.1594 14.9793 -28.9165
ltibia 26.8453
lfoot 20.9322 -12.2822
ltoes -0.548939
1053
root 52.7194 17.3187 -6.4194 -1113.48 -92.4372 1133.02
lowerback 22.0771 -1.51575 3.12585
upperback 5.41587 -1.72211 -1.05569
thorax -6.50741 -1.0231 -2.44568
lowerneck 6.0711 1.43128 3.15946
upperneck -18.5606 2.11714 0.190667
head -6.61381 0.647022 -0.606477
rclavicle 3.10104e-014 5.96354e-014
rhumerus -29.5525 -1.06346 -90.0416
rradius 33.1003
rwrist 0.700224
rhand -21.9479 -8.54948
rfingers 7.12502
rthumb 4.45904 -38.4825
lclavicle 3.10104e-014 5.96354e-014
lhumerus -30.2568 -3.36144 84.8741
lradius 31.3281
lwrist 21.4132
lhand -20.4459 8.92486
lfingers 7.12502
lthumb 5.90936 38.8225
rfemur -41.2845 3.99043 23.5091
rtibia 66.7541
rfoot 12.9622 -4.23912
rtoes -6.53207
lfemur -40.4002 15.067 -29.0163
ltibia 26.633
lfoot 21.1673 -12.3817
ltoes -0.0409309
1054
root 52.8061 17.3058 -6.41727 -1113.87 -92.458 1133.43
lowerback 22.02 -1.50358 3.16353
upperback 5.39495 -1.69794 -1.06153
thorax -6.50002 -1.01127 -2.48098
lowerneck 6.05771 1.42215 3.17013
upperneck -18.5194 2.10845 0.205308
head -6.59855 0.642198 -0.602637
rclavicle 1.90833e-014 2.98177e-014
rhumerus -29.5604 -1.06231 -90.0231
rradius 33.0711
rwrist 0.752348
rhand -21.9549 -8.57553
rfingers 7.12502
rthumb 4.45232 -38.5087
lclavicle 1.90833e-014 2.98177e-014
lhumerus -30.279 -3.35968 84.8799
lradius 31.3497
lwrist 21.4343
lhand -20.4908 8.9396
lfingers 7.12502
lthumb 5.86601 38.8384
rfemur -40.4134 4.06585 23.646
rtibia 65.5934
rfoot 13.3106 -4.19525
rtoes -6.45726
lfemur -40.6469 15.1472 -29.1185
ltibia 26.4308
lfoot 21.37 -12.4676
ltoes 0.396142
